<svg width="100" height="100" viewBox="0 0 100 100" fill="none" xmlns="http://www.w3.org/2000/svg">
<rect x="22" y="28" width="56" height="49" fill="white"/>
<path fill-rule="evenodd" clip-rule="evenodd" d="M91.6667 50C91.6667 73.0117 73.0117 91.6667 50 91.6667C26.9881 91.6667 8.33334 73.0117 8.33334 50C8.33334 26.9881 26.9881 8.33334 50 8.33334C73.0117 8.33334 91.6667 26.9881 91.6667 50ZM66.7929 37.3736C68.0133 38.594 68.0133 40.5727 66.7929 41.7929L45.9596 62.6263C44.7392 63.8467 42.7608 63.8467 41.5403 62.6263L33.207 54.2929C31.9866 53.0725 31.9866 51.0942 33.207 49.8737C34.4273 48.6533 36.406 48.6533 37.6264 49.8737L43.75 55.9971L53.0617 46.6854L62.3738 37.3736C63.5942 36.1533 65.5725 36.1533 66.7929 37.3736Z" fill="#1A4DBC"/>
</svg>
